<svg width="104" height="32" viewBox="0 0 104 32" fill="none" xmlns="http://www.w3.org/2000/svg">
<path d="M31 1H15H14.5L12 1.5L10.5 2L8.5 3L7 4L5.5 5.5L4.5 6.5L4 7L3 8.5L2.5 9.5L2 10.5L1.5 12L1 14V17.5L1.5 20L2 21.5L2.5 22.5L3.5 24L4 25L5 26L6 27L7 28L8.5 29L9.5 29.5L10.5 30L12 30.5L15 31H22H34H41H56.1416H73H86H89L91 30.5L93 30L94.5 29.5L96 28.5L98 27L100 25L101.5 22.5L102.5 20L103 17.5V14L102.5 12L101.5 9.5L101 8.5L99.5 6L98.5 5L96.5 3.5L95.5 3L94.5 2.5L92 1.5L89 1H68H51H31Z" stroke="black"/>
</svg>
