<svg width="247" height="201" viewBox="0 0 247 201" fill="none" xmlns="http://www.w3.org/2000/svg">
<path d="M101.476 3.97427C99.5374 6.61802 97.158 7.36708 73.2762 12.919L50.4518 18.2065L27.7596 26.7986C15.2899 31.5133 3.92177 35.8315 2.51177 36.3602C0.220521 37.2415 0.000208046 37.4177 0.220521 38.4311C0.352708 39.048 3.48115 50.8127 7.1824 64.6483L13.924 89.764L18.5065 89.6758C21.0621 89.6318 31.3286 89.2793 41.3308 88.8827C51.3771 88.4861 59.6168 88.2218 59.7049 88.3099C59.793 88.398 60.0574 98.1358 60.3218 110.033C60.6302 121.886 61.0268 139.334 61.2471 148.808C61.4674 158.237 61.7758 172.646 61.908 180.753C62.0402 188.861 62.2605 196.351 62.3927 197.409L62.613 199.259H124.212C158.096 199.259 185.9 199.171 185.988 199.083C186.164 198.907 185.944 177.404 185.151 117.303C184.931 101.441 184.842 88.354 184.931 88.2658C184.975 88.1336 193.435 87.8252 203.701 87.5168C213.924 87.1643 225.071 86.8118 228.464 86.6355L234.677 86.3711L239.876 59.3168C242.741 44.4236 245.032 32.1743 244.944 32.1302C244.856 32.0421 233.752 28.473 220.313 24.199L195.858 16.3999L174.708 12.1699C152.06 7.67552 149.416 6.88239 146.949 4.01833L145.847 2.65239L142.939 3.79802C132.144 8.11614 119.41 8.77708 109.055 5.51645C107.116 4.89958 104.825 4.01833 103.944 3.5777L102.357 2.78458L101.476 3.97427ZM145.759 7.23489L145.627 10.804L143.864 11.4208C136.682 13.9324 124.565 15.1661 116.457 14.2408C111.963 13.7121 104.12 11.8615 103.371 11.1124C102.974 10.7158 102.401 4.06239 102.754 4.06239C102.842 4.06239 104.605 4.67927 106.631 5.38427C112.844 7.67552 115.885 8.1602 123.375 8.1602C130.998 8.1602 134.038 7.67552 141 5.20802C143.291 4.37083 145.362 3.66583 145.539 3.66583C145.715 3.62177 145.847 5.25208 145.759 7.23489ZM103.106 16.3999C103.944 20.1452 106.72 25.653 108.967 28.1205C112.58 32.1302 118.484 34.4655 124.961 34.4655C131.791 34.4655 136.682 32.5708 140.604 28.429C144.525 24.2871 146.288 19.0877 146.596 10.6277L146.816 5.03177L148.359 6.08927C149.196 6.66208 150.253 7.23489 150.738 7.36708C151.267 7.54333 151.531 7.93989 151.399 8.29239C151.267 8.64489 151.443 8.90927 151.884 8.90927C152.501 8.90927 152.545 9.39395 152.236 12.963C151.355 24.3311 145.759 34.113 137.916 37.9024C130.469 41.5155 119.806 41.5155 112.36 37.9024C105.045 34.3333 99.6255 25.9615 97.2461 14.6374C95.8802 7.98395 95.8361 8.29239 98.3036 7.14677C99.4933 6.57395 100.815 5.73677 101.212 5.25208C101.961 4.45895 102.005 4.59114 102.269 9.17364C102.401 11.8174 102.798 15.078 103.106 16.3999ZM95.6158 9.65833C95.6158 10.3633 95.9243 12.3021 96.2768 14.0205C99.3611 28.7815 106.015 37.3736 116.766 40.458C120.643 41.5596 129.059 41.5596 133.069 40.5021C144.79 37.3736 151.972 27.3274 153.117 12.3902L153.426 8.60083L174.4 12.7868C185.944 15.078 195.461 17.0168 195.55 17.0608C195.638 17.149 193.082 26.1377 186.605 48.3452L183.609 58.4796L183.917 78.528C184.049 89.5436 184.402 114.042 184.622 132.945C184.842 151.848 185.151 174.32 185.327 182.824L185.591 198.378H124.345H63.1418L62.8333 186.834C62.7011 180.445 62.3486 166.697 62.1283 156.298C61.864 145.856 61.4674 129.024 61.2471 118.845C61.0268 108.667 60.6302 90.1165 60.3658 77.6468C60.1455 65.1771 59.8371 53.148 59.7049 50.989C59.4405 46.9793 59.3524 46.6708 53.0515 25.4768C51.994 21.8636 51.1568 18.8674 51.2008 18.8233C51.333 18.6911 94.7346 8.55677 95.3074 8.5127C95.4836 8.46864 95.6158 8.99739 95.6158 9.65833ZM145.847 12.8308C145.847 15.3865 144.481 20.6299 143.115 23.4499C140.78 28.2968 136.726 31.6015 131.527 32.9674C128.707 33.7605 121.569 33.7605 118.749 32.9674C110.597 30.8083 104.825 23.5821 103.415 13.668L103.195 12.0818L104.561 12.5224C111.522 14.6374 116.105 15.2983 123.596 15.2543C127.253 15.2543 131.703 14.9899 133.51 14.6815C137.167 14.0646 144.481 12.214 144.878 11.8174C145.451 11.2005 145.847 11.6411 145.847 12.8308ZM221.194 25.2124C231.24 28.429 239.612 31.1168 239.788 31.2049C239.921 31.293 239.876 32.0421 239.656 32.8352C239.304 34.113 234.016 58.2593 229.742 77.8671C228.861 81.9649 228.024 85.4899 227.847 85.6661C227.715 85.8424 221.15 86.1949 213.263 86.4152C205.376 86.6796 195.726 87.0321 191.804 87.1643L184.622 87.4727V72.5355C184.622 60.2861 184.754 57.2018 185.327 55.3952C186.076 52.9718 192.201 31.954 194.58 23.6702C195.417 20.7621 196.211 18.1624 196.299 17.854C196.475 17.2811 195.285 16.9286 221.194 25.2124ZM53.0955 28.2968C54.4615 33.0115 56.3561 39.4886 57.2815 42.7052L58.9558 48.4774L59.2202 65.6177C59.3965 75.003 59.6168 83.7274 59.749 85.0052L59.9693 87.2524L57.1933 87.5168C55.6511 87.649 48.3808 87.9574 40.9783 88.2218C33.5758 88.4421 25.953 88.7946 23.9702 88.9268L20.4011 89.1911L19.3877 85.7102C18.859 83.8155 17.5371 79.4093 16.5236 75.8843C15.4661 72.3593 13.3952 65.3093 11.8971 60.2421C10.399 55.1308 8.19583 47.7283 7.00615 43.7186C5.4199 38.3871 5.02333 36.4043 5.37583 36.184C5.68427 35.9636 14.9374 32.4386 25.9971 28.2527C37.0127 24.0668 46.9268 20.3215 48.0283 19.8808C49.1299 19.4843 50.1433 19.264 50.3196 19.3961C50.4518 19.5724 51.7296 23.5821 53.0955 28.2968ZM243.974 32.9674C244.106 33.364 235.382 79.7618 234.192 84.9611C234.016 85.7543 233.62 85.8865 231.284 85.9746C228.905 86.0627 228.641 85.9746 228.861 85.2696C229.081 84.5205 230.888 76.2808 237.717 45.2168L240.714 31.5133L242.256 31.954C243.093 32.2183 243.842 32.659 243.974 32.9674ZM11.5886 61.9165C15.6424 75.7521 19.0793 87.5608 19.2555 88.1336C19.4758 89.103 19.4318 89.1471 16.9643 89.0149L14.4086 88.8827L7.8874 64.428C4.27427 50.989 1.23396 39.4886 1.10177 38.8718C0.881458 37.9465 1.05771 37.638 2.07115 37.2415C2.73208 36.9771 3.52521 36.7568 3.74552 36.7127C4.0099 36.7127 7.5349 48.0368 11.5886 61.9165Z" fill="white" stroke="white" stroke-width="3"/>
</svg>
