<svg width="245" height="198" viewBox="0 0 245 198" fill="none" xmlns="http://www.w3.org/2000/svg">
<path d="M97.8754 2.10645C95.6723 4.92645 92.9404 5.71958 70.2923 10.214L49.1423 14.3999L24.6876 22.199C11.2485 26.473 0.144784 30.0421 0.0566587 30.1302C-0.0314663 30.1743 2.25978 42.4236 5.12385 57.3168L10.3232 84.3711L16.536 84.6355C19.9288 84.8118 31.0767 85.1643 41.2992 85.5168C51.5657 85.8252 60.0257 86.1336 60.0698 86.2658C60.1579 86.354 60.0698 99.4405 59.8495 115.303C59.0563 175.404 58.836 196.907 59.0123 197.083C59.1004 197.171 86.9039 197.259 120.788 197.259H182.387L182.608 195.365C182.74 194.351 182.96 186.861 183.092 178.753C183.224 170.646 183.533 156.237 183.753 146.808C183.974 137.334 184.37 119.886 184.679 108.033C184.943 96.1358 185.207 86.398 185.295 86.3099C185.384 86.2218 193.623 86.4861 203.669 86.8827C213.672 87.2793 223.938 87.6318 226.494 87.6758L231.076 87.764L237.818 62.6483C241.519 48.8127 244.648 37.048 244.78 36.4311C245 35.4177 244.78 35.2415 242.489 34.3602C241.079 33.8315 229.71 29.5133 217.241 24.7986L194.549 16.2065L179.127 12.6374C149.825 5.85177 148.856 5.58739 146.609 4.3977C145.419 3.73677 144.009 2.6352 143.524 1.97427C142.687 0.82864 142.599 0.784578 141.321 1.48958C136.562 3.95708 128.675 5.58739 121.625 5.58739C115.721 5.58739 110.565 4.70614 104.749 2.67927C102.282 1.84208 99.9464 1.04895 99.5939 0.960828C99.2414 0.82864 98.4482 1.35739 97.8754 2.10645ZM105.102 3.56052C111.491 5.67552 114.928 6.24833 121.625 6.24833C128.455 6.24833 131.936 5.67552 138.06 3.51645L142.423 1.97427L143.568 3.07583C144.229 3.6927 145.639 4.61802 146.741 5.19083L148.724 6.1602L146.08 7.39395C134.095 12.9899 119.51 14.0915 105.102 10.4343C100.211 9.20052 93.4251 6.64489 93.4251 6.07208C93.4251 5.85177 94.2182 5.36708 95.1435 4.92645C96.1129 4.52989 97.4348 3.60458 98.0957 2.89958C98.8448 2.10645 99.5939 1.70989 100.034 1.84208C100.387 2.01833 102.678 2.76739 105.102 3.56052ZM95.2317 7.96677C102.722 11.4036 111.447 13.2102 121.184 13.2543C131.319 13.2983 138.545 11.8002 146.564 8.01083L149.649 6.5127L162.868 9.59708C170.094 11.2715 180.008 13.5627 184.855 14.6643C189.702 15.8099 193.711 16.7352 193.799 16.8233C193.844 16.8674 193.006 19.8636 191.949 23.4768C185.648 44.6708 185.56 44.9793 185.295 48.989C185.163 51.148 184.855 63.1771 184.634 75.6468C184.37 88.1165 183.974 106.711 183.753 116.933C183.489 127.2 183.136 144.032 182.872 154.386C182.652 164.785 182.299 178.445 182.167 184.834L181.859 196.378H120.656H59.4088L59.6732 180.824C59.8495 172.32 60.1579 149.848 60.3782 130.945C60.5985 112.042 60.951 87.5436 61.0832 76.528L61.3917 56.4796L58.3954 46.3452C51.9182 24.1377 49.3626 15.149 49.4507 15.0608C49.5388 15.0168 90.517 6.73302 91.7067 6.5127C91.8389 6.46864 93.4251 7.12958 95.2317 7.96677ZM50.332 21.4499C52.3588 28.4558 58.792 50.4871 59.6732 53.3952C60.246 55.2018 60.3782 58.2861 60.3782 70.5355V85.4727L53.2401 85.1643C49.2745 85.0321 39.6248 84.6796 31.7376 84.4152C23.8504 84.1949 17.2851 83.8424 17.1529 83.6661C16.9767 83.4899 16.1395 79.9649 15.2582 75.8671C10.9401 56.039 5.69666 32.113 5.34416 30.7911C5.03572 29.7336 5.07978 29.249 5.43228 29.1168C9.22166 27.6627 48.3492 15.4574 48.5254 15.6777C48.6576 15.8099 49.4948 18.4096 50.332 21.4499ZM219.003 26.2527C230.063 30.4386 239.316 33.9636 239.624 34.184C239.977 34.4043 239.58 36.3871 237.994 41.7186C236.804 45.7283 234.601 53.1308 233.103 58.2421C231.605 63.3093 229.534 70.3593 228.477 73.8843C227.463 77.4093 226.141 81.8155 225.613 83.7102L224.599 87.1911L221.03 86.9268C219.047 86.7946 211.424 86.4421 204.022 86.2218C196.619 85.9574 189.349 85.649 187.807 85.5168L185.031 85.2524L185.251 83.0052C185.384 81.7274 185.604 73.003 185.78 63.6177L186.044 46.4774L187.719 40.7052C191.729 26.8255 194.416 17.6605 194.593 17.3961C194.725 17.2199 195.738 17.4402 196.884 17.8808C198.029 18.3215 207.988 22.0668 219.003 26.2527ZM7.28291 43.1286C14.7295 77.233 15.9192 82.5205 16.1395 83.2696C16.3598 83.9746 16.0954 84.0627 13.716 83.9746C11.3807 83.8865 10.9842 83.7543 10.8079 82.9611C9.75041 78.3786 0.893846 31.408 0.981971 31.0555C1.20228 30.4827 4.15447 29.3371 4.28666 29.7777C4.33072 29.9099 5.69666 35.9465 7.28291 43.1286ZM242.665 35.1974C243.943 35.6821 244.119 35.9024 243.899 36.8718C243.766 37.4886 240.726 48.989 237.113 62.428L230.592 86.8827L228.036 87.0149C225.569 87.1471 225.524 87.103 225.745 86.1336C226.802 82.168 240.858 34.6686 240.99 34.6686C241.123 34.6686 241.872 34.889 242.665 35.1974Z" fill="black"/>
</svg>
