<svg width="245" height="198" viewBox="0 0 245 198" fill="none" xmlns="http://www.w3.org/2000/svg">
<path d="M101.476 1.97427C99.5374 4.61802 97.158 5.36708 73.2762 10.919L50.4518 16.2065L27.7596 24.7986C15.2899 29.5133 3.92177 33.8315 2.51177 34.3602C0.220521 35.2415 0.000208046 35.4177 0.220521 36.4311C0.352708 37.048 3.48115 48.8127 7.1824 62.6483L13.924 87.764L18.5065 87.6758C21.0621 87.6318 31.3286 87.2793 41.3308 86.8827C51.3771 86.4861 59.6168 86.2218 59.7049 86.3099C59.793 86.398 60.0574 96.1358 60.3218 108.033C60.6302 119.886 61.0268 137.334 61.2471 146.808C61.4674 156.237 61.7758 170.646 61.908 178.753C62.0402 186.861 62.2605 194.351 62.3927 195.409L62.613 197.259H124.212C158.096 197.259 185.9 197.171 185.988 197.083C186.164 196.907 185.944 175.404 185.151 115.303C184.931 99.4405 184.842 86.354 184.931 86.2658C184.975 86.1336 193.435 85.8252 203.701 85.5168C213.924 85.1643 225.071 84.8118 228.464 84.6355L234.677 84.3711L239.876 57.3168C242.741 42.4236 245.032 30.1743 244.944 30.1302C244.856 30.0421 233.752 26.473 220.313 22.199L195.858 14.3999L174.708 10.1699C152.06 5.67552 149.416 4.88239 146.949 2.01833L145.847 0.65239L142.939 1.79802C132.144 6.11614 119.41 6.77708 109.055 3.51645C107.116 2.89958 104.825 2.01833 103.944 1.5777L102.357 0.784578L101.476 1.97427ZM145.759 5.23489L145.627 8.80395L143.864 9.42083C136.682 11.9324 124.565 13.1661 116.457 12.2408C111.963 11.7121 104.12 9.86145 103.371 9.11239C102.974 8.71583 102.401 2.06239 102.754 2.06239C102.842 2.06239 104.605 2.67927 106.631 3.38427C112.844 5.67552 115.885 6.1602 123.375 6.1602C130.998 6.1602 134.038 5.67552 141 3.20802C143.291 2.37083 145.362 1.66583 145.539 1.66583C145.715 1.62177 145.847 3.25208 145.759 5.23489ZM103.106 14.3999C103.944 18.1452 106.72 23.653 108.967 26.1205C112.58 30.1302 118.484 32.4655 124.961 32.4655C131.791 32.4655 136.682 30.5708 140.604 26.429C144.525 22.2871 146.288 17.0877 146.596 8.6277L146.816 3.03177L148.359 4.08927C149.196 4.66208 150.253 5.23489 150.738 5.36708C151.267 5.54333 151.531 5.93989 151.399 6.29239C151.267 6.64489 151.443 6.90927 151.884 6.90927C152.501 6.90927 152.545 7.39395 152.236 10.963C151.355 22.3311 145.759 32.113 137.916 35.9024C130.469 39.5155 119.806 39.5155 112.36 35.9024C105.045 32.3333 99.6255 23.9615 97.2461 12.6374C95.8802 5.98395 95.8361 6.29239 98.3036 5.14677C99.4933 4.57395 100.815 3.73677 101.212 3.25208C101.961 2.45895 102.005 2.59114 102.269 7.17364C102.401 9.81739 102.798 13.078 103.106 14.3999ZM95.6158 7.65833C95.6158 8.36333 95.9243 10.3021 96.2768 12.0205C99.3611 26.7815 106.015 35.3736 116.766 38.458C120.643 39.5596 129.059 39.5596 133.069 38.5021C144.79 35.3736 151.972 25.3274 153.117 10.3902L153.426 6.60083L174.4 10.7868C185.944 13.078 195.461 15.0168 195.55 15.0608C195.638 15.149 193.082 24.1377 186.605 46.3452L183.609 56.4796L183.917 76.528C184.049 87.5436 184.402 112.042 184.622 130.945C184.842 149.848 185.151 172.32 185.327 180.824L185.591 196.378H124.345H63.1418L62.8333 184.834C62.7011 178.445 62.3486 164.697 62.1283 154.298C61.864 143.856 61.4674 127.024 61.2471 116.845C61.0268 106.667 60.6302 88.1165 60.3658 75.6468C60.1455 63.1771 59.8371 51.148 59.7049 48.989C59.4405 44.9793 59.3524 44.6708 53.0515 23.4768C51.994 19.8636 51.1568 16.8674 51.2008 16.8233C51.333 16.6911 94.7346 6.55677 95.3074 6.5127C95.4836 6.46864 95.6158 6.99739 95.6158 7.65833ZM145.847 10.8308C145.847 13.3865 144.481 18.6299 143.115 21.4499C140.78 26.2968 136.726 29.6015 131.527 30.9674C128.707 31.7605 121.569 31.7605 118.749 30.9674C110.597 28.8083 104.825 21.5821 103.415 11.668L103.195 10.0818L104.561 10.5224C111.522 12.6374 116.105 13.2983 123.596 13.2543C127.253 13.2543 131.703 12.9899 133.51 12.6815C137.167 12.0646 144.481 10.214 144.878 9.81739C145.451 9.20052 145.847 9.64114 145.847 10.8308ZM221.194 23.2124C231.24 26.429 239.612 29.1168 239.788 29.2049C239.921 29.293 239.876 30.0421 239.656 30.8352C239.304 32.113 234.016 56.2593 229.742 75.8671C228.861 79.9649 228.024 83.4899 227.847 83.6661C227.715 83.8424 221.15 84.1949 213.263 84.4152C205.376 84.6796 195.726 85.0321 191.804 85.1643L184.622 85.4727V70.5355C184.622 58.2861 184.754 55.2018 185.327 53.3952C186.076 50.9718 192.201 29.954 194.58 21.6702C195.417 18.7621 196.211 16.1624 196.299 15.854C196.475 15.2811 195.285 14.9286 221.194 23.2124ZM53.0955 26.2968C54.4615 31.0115 56.3561 37.4886 57.2815 40.7052L58.9558 46.4774L59.2202 63.6177C59.3965 73.003 59.6168 81.7274 59.749 83.0052L59.9693 85.2524L57.1933 85.5168C55.6511 85.649 48.3808 85.9574 40.9783 86.2218C33.5758 86.4421 25.953 86.7946 23.9702 86.9268L20.4011 87.1911L19.3877 83.7102C18.859 81.8155 17.5371 77.4093 16.5236 73.8843C15.4661 70.3593 13.3952 63.3093 11.8971 58.2421C10.399 53.1308 8.19583 45.7283 7.00615 41.7186C5.4199 36.3871 5.02333 34.4043 5.37583 34.184C5.68427 33.9636 14.9374 30.4386 25.9971 26.2527C37.0127 22.0668 46.9268 18.3215 48.0283 17.8808C49.1299 17.4843 50.1433 17.264 50.3196 17.3961C50.4518 17.5724 51.7296 21.5821 53.0955 26.2968ZM243.974 30.9674C244.106 31.364 235.382 77.7618 234.192 82.9611C234.016 83.7543 233.62 83.8865 231.284 83.9746C228.905 84.0627 228.641 83.9746 228.861 83.2696C229.081 82.5205 230.888 74.2808 237.717 43.2168L240.714 29.5133L242.256 29.954C243.093 30.2183 243.842 30.659 243.974 30.9674ZM11.5886 59.9165C15.6424 73.7521 19.0793 85.5608 19.2555 86.1336C19.4758 87.103 19.4318 87.1471 16.9643 87.0149L14.4086 86.8827L7.8874 62.428C4.27427 48.989 1.23396 37.4886 1.10177 36.8718C0.881458 35.9465 1.05771 35.638 2.07115 35.2415C2.73208 34.9771 3.52521 34.7568 3.74552 34.7127C4.0099 34.7127 7.5349 46.0368 11.5886 59.9165Z" fill="black"/>
</svg>
