<svg width="247" height="200" viewBox="0 0 247 200" fill="none" xmlns="http://www.w3.org/2000/svg">
<path d="M99.8754 3.10646C97.6723 5.92646 94.9404 6.71958 72.2923 11.214L51.1423 15.3999L26.6876 23.199C13.2485 27.473 2.14478 31.0421 2.05666 31.1302C1.96853 31.1743 4.25978 43.4236 7.12385 58.3168L12.3232 85.3711L18.536 85.6355C21.9288 85.8118 33.0767 86.1643 43.2992 86.5168C53.5657 86.8252 62.0257 87.1336 62.0698 87.2658C62.1579 87.354 62.0698 100.441 61.8495 116.303C61.0563 176.404 60.836 197.907 61.0123 198.083C61.1004 198.171 88.9039 198.259 122.788 198.259H184.387L184.608 196.365C184.74 195.351 184.96 187.861 185.092 179.753C185.224 171.646 185.533 157.237 185.753 147.808C185.974 138.334 186.37 120.886 186.679 109.033C186.943 97.1358 187.207 87.398 187.295 87.3099C187.384 87.2218 195.623 87.4861 205.669 87.8827C215.672 88.2793 225.938 88.6318 228.494 88.6758L233.076 88.764L239.818 63.6483C243.519 49.8127 246.648 38.048 246.78 37.4311C247 36.4177 246.78 36.2414 244.489 35.3602C243.079 34.8314 231.71 30.5133 219.241 25.7986L196.549 17.2065L181.127 13.6374C151.825 6.85176 150.856 6.58739 148.609 5.39771C147.419 4.73677 146.009 3.6352 145.524 2.97426C144.687 1.82863 144.599 1.78458 143.321 2.48958C138.562 4.95708 130.675 6.58739 123.625 6.58739C117.721 6.58739 112.565 5.70614 106.749 3.67926C104.282 2.84207 101.946 2.04896 101.594 1.96083C101.241 1.82864 100.448 2.3574 99.8754 3.10646ZM107.102 4.56052C113.491 6.67552 116.928 7.24832 123.625 7.24832C130.455 7.24832 133.936 6.67551 140.06 4.51645L144.423 2.97426L145.568 4.07582C146.229 4.6927 147.639 5.61801 148.741 6.19083L150.724 7.1602L148.08 8.39395C136.095 13.9899 121.51 15.0915 107.102 11.4343C102.211 10.2005 95.4251 7.6449 95.4251 7.07208C95.4251 6.85177 96.2182 6.36708 97.1435 5.92645C98.1129 5.52989 99.4348 4.60458 100.096 3.89958C100.845 3.10646 101.594 2.70988 102.034 2.84207C102.387 3.01832 104.678 3.76739 107.102 4.56052ZM97.2317 8.96677C104.722 12.4036 113.447 14.2102 123.184 14.2543C133.319 14.2983 140.545 12.8002 148.564 9.01083L151.649 7.51271L164.868 10.5971C172.094 12.2715 182.008 14.5627 186.855 15.6643C191.702 16.8099 195.711 17.7352 195.799 17.8233C195.844 17.8674 195.006 20.8636 193.949 24.4768C187.648 45.6708 187.56 45.9793 187.295 49.989C187.163 52.148 186.855 64.1771 186.634 76.6468C186.37 89.1165 185.974 107.711 185.753 117.933C185.489 128.2 185.136 145.032 184.872 155.386C184.652 165.785 184.299 179.445 184.167 185.834L183.859 197.378H122.656H61.4088L61.6732 181.824C61.8495 173.32 62.1579 150.848 62.3782 131.945C62.5985 113.042 62.951 88.5436 63.0832 77.528L63.3917 57.4796L60.3954 47.3452C53.9182 25.1377 51.3626 16.1489 51.4507 16.0608C51.5388 16.0168 92.517 7.73302 93.7067 7.51271C93.8389 7.46865 95.4251 8.12958 97.2317 8.96677ZM52.332 22.4499C54.3588 29.4558 60.792 51.4871 61.6732 54.3952C62.246 56.2018 62.3782 59.2861 62.3782 71.5355V86.4727L55.2401 86.1643C51.2745 86.0321 41.6248 85.6796 33.7376 85.4152C25.8504 85.1949 19.2851 84.8424 19.1529 84.6661C18.9767 84.4899 18.1395 80.9649 17.2582 76.8671C12.9401 57.039 7.69666 33.113 7.34416 31.7911C7.03572 30.7336 7.07978 30.2489 7.43228 30.1168C11.2217 28.6627 50.3492 16.4574 50.5254 16.6777C50.6576 16.8099 51.4948 19.4096 52.332 22.4499ZM221.003 27.2527C232.063 31.4386 241.316 34.9636 241.624 35.184C241.977 35.4043 241.58 37.3871 239.994 42.7186C238.804 46.7283 236.601 54.1308 235.103 59.2421C233.605 64.3093 231.534 71.3593 230.477 74.8843C229.463 78.4093 228.141 82.8155 227.613 84.7102L226.599 88.1911L223.03 87.9268C221.047 87.7946 213.424 87.4421 206.022 87.2218C198.619 86.9574 191.349 86.649 189.807 86.5168L187.031 86.2524L187.251 84.0052C187.384 82.7274 187.604 74.003 187.78 64.6177L188.044 47.4774L189.719 41.7052C193.729 27.8255 196.416 18.6605 196.593 18.3961C196.725 18.2199 197.738 18.4402 198.884 18.8808C200.029 19.3215 209.988 23.0668 221.003 27.2527ZM9.28291 44.1286C16.7295 78.233 17.9192 83.5205 18.1395 84.2696C18.3598 84.9746 18.0954 85.0627 15.716 84.9746C13.3807 84.8865 12.9842 84.7543 12.8079 83.9611C11.7504 79.3786 2.89385 32.408 2.98197 32.0555C3.20228 31.4827 6.15447 30.3371 6.28666 30.7777C6.33072 30.9099 7.69666 36.9465 9.28291 44.1286ZM244.665 36.1974C245.943 36.6821 246.119 36.9024 245.899 37.8718C245.766 38.4886 242.726 49.989 239.113 63.428L232.592 87.8827L230.036 88.0149C227.569 88.1471 227.524 88.103 227.745 87.1336C228.802 83.168 242.858 35.6686 242.99 35.6686C243.123 35.6686 243.872 35.889 244.665 36.1974Z" fill="white" stroke="white" stroke-width="3"/>
</svg>
